PathFileType	4	(X/Y/Z)	52_2_88_p1_0-284_filt_butterworth.trc
DataRate	CameraRate	NumFrames	NumMarkers	Units	OrigDataRate	OrigDataStartFrame	OrigNumFrames
60.0	60.0	6	27	m	60.0	142	284
Frame#	Time	RHip			RKnee			RAnkle			RBigToe			RSmallToe			RHeel			LHip			LKnee			LAnkle			LBigToe			LSmallToe			LHeel			Neck			Head			Nose			RShoulder			RElbow			RWrist			RThumb			RIndex			RPinky			LShoulder			LElbow			LWrist			LThumb			LIndex			LPinky			
		X1	Y1	Z1	X2	Y2	Z2	X3	Y3	Z3	X4	Y4	Z4	X5	Y5	Z5	X6	Y6	Z6	X7	Y7	Z7	X8	Y8	Z8	X9	Y9	Z9	X10	Y10	Z10	X11	Y11	Z11	X12	Y12	Z12	X13	Y13	Z13	X14	Y14	Z14	X15	Y15	Z15	X16	Y16	Z16	X17	Y17	Z17	X18	Y18	Z18	X19	Y19	Z19	X20	Y20	Z20	X21	Y21	Z21	X22	Y22	Z22	X23	Y23	Z23	X24	Y24	Z24	X25	Y25	Z25	X26	Y26	Z26	X27	Y27	Z27	
142	2.3666666666666667	0.20371241579049806	0.5269437595299529	0.46768614670267794	0.12281094719616975	0.6052659965246641	0.8773759309086724	0.03695921754300886	0.7609079990656507	1.2609964816048698	0.00706821646893343	0.6163013076951943	1.3146236301795293	0.07464942300105903	0.6209054007207528	1.3266369608207123	0.0030791154607217484	0.8584680134644815	1.3087138252514205	0.004637380098674349	0.577336630679555	0.4430698220991936	-0.07790911630090773	0.6779932667453704	0.8571325392771558	-0.1496367885597498	0.7689149583441854	1.2334883464555866	-0.13783866141308268	0.6276014756794192	1.275795462859842	-0.1978036517646472	0.6572222984710445	1.264131606077677	-0.1383958101310201	0.8075489251068808	1.2793799855468304	0.20140155821623168	0.46082254904846076	-0.014372246148132782	0.2684538723030832	0.27155182701598807	-0.23951067363075174	0.21844768945288306	0.27358473996308685	-0.09097062415674602	0.3365263451003798	0.43193525090793966	0.09360257895384919	0.31630771948828373	0.4728521326066281	0.35811424263025915	0.3162384908141727	0.4173851429985832	0.5916324480605145	0.2749618267670974	0.3658147975169149	0.6883982983934874	0.2994188312875675	0.38955957488829723	0.7068081324268312	0.30707177353514187	0.43618851273837944	0.7107769770406498	0.051763369322387974	0.43253861587328424	0.03503124260886425	-0.05251689327170811	0.5299149414030666	0.2817305316111395	-0.06472390113007	0.5005050244514142	0.5304352599443749	-0.046340604780897576	0.4923124594854755	0.6463678703053608	-0.06957385653458918	0.5047114181844221	0.6750545512012969	-0.10954178463116296	0.5158487362624823	0.6479912963549707
143	2.3833333333333333	0.20104407313576148	0.5232710099700902	0.4690223575833089	0.12163987088154804	0.6070152839796316	0.8766378015926549	0.036279473886765695	0.7628137038543505	1.261554335103732	0.00645878985507349	0.6127748607640927	1.3126609221141887	0.07238745046769612	0.6215132496218055	1.3266422603519772	0.003254942660576337	0.8592471343728247	1.3090622320064005	0.004620654757876277	0.5773744375555613	0.4432712657524027	-0.07840516427510387	0.6845866766257521	0.861817390041827	-0.1495786978762445	0.7689891965341321	1.2331769394725538	-0.1377862465222145	0.62793211128501	1.2758916710387478	-0.1978816013969494	0.6573973080041499	1.2643187709077501	-0.1384778740489397	0.8082755635103739	1.279779762539605	0.20427119408341918	0.460682757155627	-0.014132711978775945	0.26875125854968557	0.27198447807382925	-0.23947103998846603	0.2184779593443072	0.273422841328335	-0.091013087848906	0.3375080497353399	0.4284576535387373	0.09395411103116551	0.3132473898463443	0.4717148105699973	0.3595119898729027	0.30676203205235814	0.4246836213976816	0.5958693037096733	0.2590379054359007	0.35190757117545063	0.6851222967475141	0.28382033775385945	0.37779503804222525	0.7088434909933149	0.2987777655940747	0.43712913918035795	0.7122392774423051	0.0536691736799517	0.43229954097058154	0.03180813392022218	-0.052353868481525886	0.5298740069996818	0.28035216712619637	-0.06630053140830346	0.5024003115714738	0.5269588543669955	-0.05037934449370638	0.4980446273753741	0.6429024005815925	-0.0743519729403376	0.5123309537325931	0.6757485848245643	-0.11296170716807456	0.5218559312864474	0.6457705242327715
144	2.4	0.1997691705275731	0.522414873758098	0.4715725955738599	0.11915769897083833	0.611452628550483	0.8769782692615757	0.03620538122419552	0.762915697773539	1.2616154745969717	0.005720455647131522	0.6085717189151896	1.3108078328220576	0.06946747232471823	0.6223574981588974	1.326673977000038	0.0031847595311576327	0.8604592730061065	1.3111051470036383	0.004515279990503226	0.5777568336212298	0.44413042769075606	-0.07852575947573812	0.687126273264568	0.8655171716940718	-0.1497727113974383	0.769461230478426	1.2339082386125864	-0.13772551640672723	0.6282828261706256	1.2759412367750513	-0.19790668828898098	0.6574061769484578	1.2643427642509748	-0.13859432869636984	0.8092604580414114	1.2803081908590805	0.2071741693725706	0.46111321771503	-0.01472794816879509	0.26849140524071674	0.27251579067111215	-0.23943344725369742	0.2183416932866589	0.27340513121212684	-0.09109415755988026	0.3388182990022325	0.42379306607456557	0.09439136415510879	0.3112881169873582	0.47075501087452554	0.3609690659785103	0.2942790677783587	0.4342844296734465	0.5997025872551945	0.24462248597044356	0.3484833998459725	0.6843198023097022	0.2662682372727021	0.3597696540163298	0.7093188432701752	0.2871004847556155	0.4344212767582831	0.7139254432743939	0.05543880637121696	0.43200303889561975	0.028481996913277696	-0.05201089601262673	0.5294904043993347	0.2794465655104373	-0.06854544513849317	0.505755260785035	0.523797977818604	-0.05299806700426895	0.5035480836032563	0.6401422137439516	-0.0770861407266666	0.5170667227060737	0.676272408593719	-0.11873897197559607	0.5331057872155324	0.6448771669299979
145	2.4166666666666665	0.1993507422901308	0.5230572449542259	0.47374192262013304	0.11645622353990817	0.6174139617631654	0.8779048093383874	0.036305261693368396	0.7625690263888709	1.2615497785488818	0.005137059064975593	0.6053145812510794	1.3095618973451253	0.0672025296041328	0.6231058283976157	1.3267613082264742	0.0030467953830094563	0.8615240823744706	1.3138846624102967	0.004352419577799785	0.5785003841737256	0.4454819176530753	-0.07841504821280998	0.6871295539167482	0.8666696603514524	-0.14997028142169383	0.7703761400799506	1.235646398871009	-0.13768346804022863	0.6281783262993188	1.2759462416838434	-0.197853866290439	0.6573136533214045	1.2638843749328337	-0.13868250575220786	0.8101329368865045	1.280730532843773	0.20990137095772013	0.4620955824974606	-0.015849485678165506	0.26816687267452066	0.2728312716626342	-0.2393861421051183	0.21817431261014328	0.27318684735720855	-0.0911599445751118	0.33983221416422815	0.4202466616368394	0.09470190664181362	0.31041449175054114	0.47054832974175786	0.36318901250806374	0.2817474058624629	0.441861800113147	0.6028845338803694	0.23150369900438422	0.3572633061192749	0.6866550345439139	0.24913669559148624	0.3456389829470929	0.7096517900697171	0.2711385401126925	0.42265152571098485	0.7150367945872196	0.057274330127989444	0.4319244272430575	0.02606733310576276	-0.05131558467955766	0.5291567697630176	0.27883336030436545	-0.07028577319335857	0.5087419712590973	0.5216830675226032	-0.055221381539597644	0.5115100574661612	0.638672183615101	-0.07798196529543935	0.5190295433699764	0.6766055638709042	-0.12602179252174747	0.549020885899443	0.6448030446112409
146	2.433333333333333	0.19921245936071466	0.5237320288449641	0.47468334190137834	0.11549160915456494	0.6240237440619072	0.8790106743479109	0.03638281453238915	0.7623701309351009	1.2615087934403129	0.004878274079083552	0.6039875219044488	1.3091478656880207	0.0661971310528597	0.623672543516726	1.326914678553198	0.0029268573529673218	0.8620196096875511	1.315744811524484	0.00421976856410236	0.5793858331386661	0.4466075612301703	-0.07801686562166993	0.6863601612535654	0.8650301430736029	-0.15006132745058148	0.7714910063400515	1.2377906639126026	-0.1377327191237118	0.626366132195252	1.275770425623293	-0.19771688734368723	0.6572150454485495	1.2627017587291844	-0.1387254268759138	0.8106096247253615	1.2809134434806881	0.2120847582841352	0.4632209726664904	-0.016756433097099958	0.26805199544306074	0.2728819408698691	-0.2393800078287608	0.21810665662059736	0.27314322275032066	-0.09121548361252643	0.340262272261059	0.4188707248729279	0.09487550014873922	0.31072026312065987	0.4711620537713044	0.36604036392915873	0.27194493783865065	0.4451488508916927	0.6053008762772967	0.2182996579751673	0.3732855567055811	0.6908883093061691	0.2337594203910543	0.34202561195973774	0.7105856223744149	0.2532423521909698	0.4051013248400809	0.7154749811954084	0.05928513934645758	0.4325503468157794	0.025108520699346795	-0.050164391715678706	0.5287630261748714	0.2778915917681987	-0.07116314200276144	0.5101308268401852	0.5207161209415369	-0.05745528299946087	0.5215637585972408	0.6378144414190453	-0.07808051138920624	0.5197809545246151	0.6768470230674459	-0.13266998179210776	0.5649123001307984	0.6448481881681625
147	2.45	0.1991139657974017	0.5239235350209082	0.4747468361165438	0.11693857334460536	0.6305931058189522	0.8797800393598556	0.036409933566153116	0.7623640978974978	1.261503709576852	0.004855601657521847	0.6039713507048134	1.3092202966743531	0.0660198723276616	0.6241492951495916	1.3271044993230827	0.00279150336978573	0.8618988735774319	1.3161492833428579	0.004216991906210117	0.5799870695017944	0.446556572001345	-0.07735213029448859	0.685749373023327	0.861796514194725	-0.15007527496327588	0.772357598943288	1.2393731732469278	-0.13798391634175103	0.6219277094527139	1.2752166327043195	-0.19755491924257376	0.6571617630334471	1.2610983478500835	-0.13873559737272964	0.8107309409213644	1.2808802029921065	0.21347203201943749	0.4637136563770812	-0.01696596486062092	0.26849722278704186	0.27306176132402615	-0.23955517639379814	0.21846567452395532	0.27424190940242243	-0.0912738794479998	0.34028305875335235	0.4189246635734518	0.09522811298626227	0.3117956761336229	0.4720113112445189	0.3683721025165895	0.26509099998153346	0.44428146072747304	0.6063310648759356	0.2044869153613737	0.38861127814934066	0.694649201913728	0.2191021008879421	0.3506920529016265	0.7118161258055546	0.23617823247965164	0.393848515835326	0.7152630301611785	0.06120239981905937	0.43410207477175367	0.025271846698588743	-0.0488776521466417	0.5282097775106103	0.2765602794318929	-0.07203038889678047	0.5101227518802848	0.520482209332602	-0.05930031693564401	0.5291924632212246	0.6364273735766123	-0.07800699017956057	0.5201305376415654	0.6769031630135708	-0.13722895103082078	0.5764468659707305	0.6448306354277751
